# xmcd
#
# Track frame offsets: 
#        150
#        10142
#        22885
#        33527
#        43945
#        52182
#        66760
#        75787
#        87877
#        102582
#        112240
#        122547
#        133682
#        143865
#        156987
#        167682
#        177095
#        185572
#        200170
#        209140
#        221517
#        235242
#        245770
#        256430
#
# Disc length: 3571 seconds
#
# Revision: 1
# Processed by: cddbd v1.5.2PL0 Copyright (c) Steve Scherf et al.
# Submitted via: ExactAudioCopy v0.99pb5
#
DISCID=660df118
DTITLE=Eumir Deodato - Tremendao
DYEAR=1964
DGENRE=Jazz
TTITLE0=Tremendao 
TTITLE1=Comecou De Brincadeira
TTITLE2=Gente 
TTITLE3=Amelia 
TTITLE4=Menina Flor 
TTITLE5=Champagne and Quail 
TTITLE6=My Manne Shelly 
TTITLE7=Imenso Do Amor 
TTITLE8=Fora De Tempo 
TTITLE9=Da Me Um Martelo 
TTITLE10=Presente 
TTITLE11=Labareda
TTITLE12=Tremendao (original Version)
TTITLE13=Comecou De Brincadeira/or
TTITLE14=Gente (original Mix) 
TTITLE15=Amelia (original Mix) 
TTITLE16=Menina Flor (original Mix)
TTITLE17=Champagne and Quail (original Mix)
TTITLE18=My Manne Shelly (original Mix
TTITLE19=Imenso Do Amor (original Mix)
TTITLE20=Fora De Tempo (original Mix)
TTITLE21=Da-me Um Martelo (original Mix)
TTITLE22=Presente (original Mix)
TTITLE23=Labareda (original Mix) 
EXTD=YEAR: 2006
EXTT0=
EXTT1=
EXTT2=
EXTT3=
EXTT4=
EXTT5=
EXTT6=
EXTT7=
EXTT8=
EXTT9=
EXTT10=
EXTT11=
EXTT12=
EXTT13=
EXTT14=
EXTT15=
EXTT16=
EXTT17=
EXTT18=
EXTT19=
EXTT20=
EXTT21=
EXTT22=
EXTT23=
PLAYORDER=
